<svg xmlns="http://www.w3.org/2000/svg" viewBox="0 0 560 620" role="img" aria-label="TruelyTech Technologies">
  <defs>
    <linearGradient id="g" x1="0" x2="0" y1="0" y2="1">
      <stop offset="0" stop-color="#0b1f33"/>
      <stop offset="1" stop-color="#143a5f"/>
    </linearGradient>
    <linearGradient id="stroke" x1="0" x2="1" y1="0" y2="1">
      <stop offset="0" stop-color="#bfc7d1"/>
      <stop offset="1" stop-color="#5f6f85"/>
    </linearGradient>
  </defs>

  <!-- Shield -->
  <path d="M280 30c95 60 185 58 220 62v182c0 170-110 255-220 316C170 529 60 444 60 274V92c35-4 125-2 220-62z" fill="url(#g)" stroke="url(#stroke)" stroke-width="16"/>
  <path d="M280 62c82 50 160 48 190 52v160c0 150-96 223-190 277-94-54-190-127-190-277V114c30-4 108-2 190-52z" fill="none" stroke="#2b4763" stroke-width="10" opacity="0.7"/>

  <!-- TT letters -->
  <g fill="#d6dde6" opacity="0.92">
    <path d="M150 165h170v42h-60v150h-50V207h-60z"/>
    <path d="M260 215h170v42h-60v100h-50V257h-60z"/>
  </g>

  <!-- AI chip -->
  <g transform="translate(0,0)">
    <rect x="230" y="355" width="100" height="80" rx="12" fill="#8b1e22"/>
    <rect x="238" y="363" width="84" height="64" rx="10" fill="#b12a2f"/>
    <text x="280" y="408" text-anchor="middle" font-family="system-ui, -apple-system, Segoe UI, Roboto, Arial, sans-serif" font-size="34" font-weight="800" fill="#ffffff">AI</text>

    <!-- simple traces -->
    <g stroke="#d15b60" stroke-width="6" stroke-linecap="round" opacity="0.9">
      <path d="M230 395h-40"/>
      <path d="M330 395h40"/>
      <path d="M250 355v-30"/>
      <path d="M310 355v-30"/>
      <path d="M250 435v30"/>
      <path d="M310 435v30"/>
    </g>
  </g>

  <!-- Text -->
  <g font-family="system-ui, -apple-system, Segoe UI, Roboto, Arial, sans-serif" fill="#d6dde6">
    <text x="280" y="560" text-anchor="middle" font-size="38" font-weight="800" letter-spacing="2">TRUELY TECH</text>
    <text x="280" y="602" text-anchor="middle" font-size="32" font-weight="700" letter-spacing="2" opacity="0.95">TECHNOLOGIES</text>
  </g>
</svg>
